{
  "accessors": [
    {
      "bufferView": 2,
      "componentType": 5126,
      "count": 2920,
      "max": [
        0.3977317810058594,
        0.3977322578430176,
        0.017868302762508392
      ],
      "min": [
        -0.3977327346801758,
        -0.3977322578430176,
        -0.01786831021308899
      ],
      "type": "VEC3"
    },
    {
      "bufferView": 2,
      "byteOffset": 35040,
      "componentType": 5126,
      "count": 2920,
      "max": [
        1.0,
        1.0,
        1.0
      ],
      "min": [
        -1.0,
        -1.0,
        -1.0
      ],
      "type": "VEC3"
    },
    {
      "bufferView": 3,
      "componentType": 5126,
      "count": 2920,
      "max": [
        1.0,
        1.0,
        1.0,
        1.0
      ],
      "min": [
        -1.0,
        -1.0,
        -1.0,
        -1.0
      ],
      "type": "VEC4"
    },
    {
      "bufferView": 1,
      "componentType": 5126,
      "count": 2920,
      "max": [
        0.9942431449890137,
        0.9979512691497803
      ],
      "min": [
        4.304790127207525e-05,
        -0.013332270085811615
      ],
      "type": "VEC2"
    },
    {
      "bufferView": 0,
      "componentType": 5125,
      "count": 4512,
      "type": "SCALAR"
    },
    {
      "bufferView": 2,
      "byteOffset": 70080,
      "componentType": 5126,
      "count": 2714,
      "max": [
        0.37708067893981934,
        0.3770785331726074,
        0.021776404231786728
      ],
      "min": [
        -0.37708067893981934,
        -0.37708234786987305,
        -0.02177639678120613
      ],
      "type": "VEC3"
    },
    {
      "bufferView": 2,
      "byteOffset": 102648,
      "componentType": 5126,
      "count": 2714,
      "max": [
        1.0,
        1.0,
        1.0
      ],
      "min": [
        -1.0,
        -1.0,
        -1.0
      ],
      "type": "VEC3"
    },
    {
      "bufferView": 3,
      "byteOffset": 46720,
      "componentType": 5126,
      "count": 2714,
      "max": [
        1.0,
        1.0,
        1.0,
        1.0
      ],
      "min": [
        -1.0,
        -1.0,
        -1.0,
        -1.0
      ],
      "type": "VEC4"
    },
    {
      "bufferView": 1,
      "byteOffset": 23360,
      "componentType": 5126,
      "count": 2714,
      "max": [
        0.9980154037475586,
        0.9896494150161743
      ],
      "min": [
        -0.005496366880834103,
        0.0009217030601575971
      ],
      "type": "VEC2"
    },
    {
      "bufferView": 0,
      "byteOffset": 18048,
      "componentType": 5125,
      "count": 4176,
      "type": "SCALAR"
    },
    {
      "bufferView": 2,
      "byteOffset": 135216,
      "componentType": 5126,
      "count": 2272,
      "max": [
        0.37841254472732544,
        0.37841272354125977,
        0.02563444897532463
      ],
      "min": [
        -0.37841105461120605,
        -0.37841081619262695,
        -0.02563442662358284
      ],
      "type": "VEC3"
    },
    {
      "bufferView": 2,
      "byteOffset": 162480,
      "componentType": 5126,
      "count": 2272,
      "max": [
        1.0,
        1.0,
        1.0
      ],
      "min": [
        -1.0,
        -1.0,
        -1.0
      ],
      "type": "VEC3"
    },
    {
      "bufferView": 3,
      "byteOffset": 90144,
      "componentType": 5126,
      "count": 2272,
      "max": [
        1.0,
        1.0,
        1.0,
        1.0
      ],
      "min": [
        -1.0,
        -1.0,
        -1.0,
        1.0
      ],
      "type": "VEC4"
    },
    {
      "bufferView": 1,
      "byteOffset": 45072,
      "componentType": 5126,
      "count": 2272,
      "max": [
        0.9981655478477478,
        0.9684622287750244
      ],
      "min": [
        0.0018345327116549015,
        0.0018344609998166561
      ],
      "type": "VEC2"
    },
    {
      "bufferView": 0,
      "byteOffset": 34752,
      "componentType": 5125,
      "count": 3546,
      "type": "SCALAR"
    },
    {
      "bufferView": 2,
      "byteOffset": 189744,
      "componentType": 5126,
      "count": 4394,
      "max": [
        0.44046148657798767,
        0.4404568672180176,
        0.03126588836312294
      ],
      "min": [
        -0.4404613673686981,
        -0.44046592712402344,
        -0.03126589581370354
      ],
      "type": "VEC3"
    },
    {
      "bufferView": 2,
      "byteOffset": 242472,
      "componentType": 5126,
      "count": 4394,
      "max": [
        1.0,
        1.0,
        1.0
      ],
      "min": [
        -1.0,
        -1.0,
        -1.0
      ],
      "type": "VEC3"
    },
    {
      "bufferView": 3,
      "byteOffset": 126496,
      "componentType": 5126,
      "count": 4394,
      "max": [
        1.0,
        1.0,
        1.0,
        -1.0
      ],
      "min": [
        -1.0,
        -1.0,
        -1.0,
        -1.0
      ],
      "type": "VEC4"
    },
    {
      "bufferView": 1,
      "byteOffset": 63248,
      "componentType": 5126,
      "count": 4394,
      "max": [
        0.9883125424385071,
        0.9978533983230591
      ],
      "min": [
        0.002176012611016631,
        0.002175942063331604
      ],
      "type": "VEC2"
    },
    {
      "bufferView": 0,
      "byteOffset": 48936,
      "componentType": 5125,
      "count": 7728,
      "type": "SCALAR"
    },
    {
      "bufferView": 2,
      "byteOffset": 295200,
      "componentType": 5126,
      "count": 3588,
      "max": [
        0.38741111755371094,
        0.3891324996948242,
        0.016020629554986954
      ],
      "min": [
        -0.3886713981628418,
        -0.3891258239746094,
        -0.016020607203245163
      ],
      "type": "VEC3"
    },
    {
      "bufferView": 2,
      "byteOffset": 338256,
      "componentType": 5126,
      "count": 3588,
      "max": [
        1.0,
        1.0,
        1.0
      ],
      "min": [
        -1.0,
        -1.0,
        -1.0
      ],
      "type": "VEC3"
    },
    {
      "bufferView": 3,
      "byteOffset": 196800,
      "componentType": 5126,
      "count": 3588,
      "max": [
        1.0,
        1.0,
        1.0,
        1.0
      ],
      "min": [
        -1.0,
        -1.0,
        -1.0,
        1.0
      ],
      "type": "VEC4"
    },
    {
      "bufferView": 1,
      "byteOffset": 98400,
      "componentType": 5126,
      "count": 3588,
      "max": [
        0.9707908034324646,
        0.9978184103965759
      ],
      "min": [
        0.00046863159514032304,
        -0.00968225859105587
      ],
      "type": "VEC2"
    },
    {
      "bufferView": 0,
      "byteOffset": 79848,
      "componentType": 5125,
      "count": 5616,
      "type": "SCALAR"
    },
    {
      "bufferView": 2,
      "byteOffset": 381312,
      "componentType": 5126,
      "count": 3574,
      "max": [
        0.344104528427124,
        0.3441047668457031,
        0.03140711784362793
      ],
      "min": [
        -0.344104528427124,
        -0.3441038131713867,
        -0.031407132744789124
      ],
      "type": "VEC3"
    },
    {
      "bufferView": 2,
      "byteOffset": 424200,
      "componentType": 5126,
      "count": 3574,
      "max": [
        1.0,
        1.0,
        1.0
      ],
      "min": [
        -1.0,
        -1.0,
        -1.0
      ],
      "type": "VEC3"
    },
    {
      "bufferView": 3,
      "byteOffset": 254208,
      "componentType": 5126,
      "count": 3574,
      "max": [
        0.9994432330131531,
        1.0,
        1.0,
        1.0
      ],
      "min": [
        -1.0,
        -0.9998264312744141,
        -1.0,
        1.0
      ],
      "type": "VEC4"
    },
    {
      "bufferView": 1,
      "byteOffset": 127104,
      "componentType": 5126,
      "count": 3574,
      "max": [
        0.9854851961135864,
        0.997858464717865
      ],
      "min": [
        0.0021416216623038054,
        0.0021416188683360815
      ],
      "type": "VEC2"
    },
    {
      "bufferView": 0,
      "byteOffset": 102312,
      "componentType": 5125,
      "count": 5436,
      "type": "SCALAR"
    },
    {
      "bufferView": 2,
      "byteOffset": 467088,
      "componentType": 5126,
      "count": 3126,
      "max": [
        0.35598838329315186,
        0.35620641708374023,
        0.03774932771921158
      ],
      "min": [
        -0.355222225189209,
        -0.35620927810668945,
        -0.03774937987327576
      ],
      "type": "VEC3"
    },
    {
      "bufferView": 2,
      "byteOffset": 504600,
      "componentType": 5126,
      "count": 3126,
      "max": [
        1.0,
        1.0,
        1.0
      ],
      "min": [
        -1.0,
        -1.0,
        -1.0
      ],
      "type": "VEC3"
    },
    {
      "bufferView": 3,
      "byteOffset": 311392,
      "componentType": 5126,
      "count": 3126,
      "max": [
        1.0,
        1.0,
        1.0,
        1.0
      ],
      "min": [
        -1.0,
        -1.0,
        -1.0,
        1.0
      ],
      "type": "VEC4"
    },
    {
      "bufferView": 1,
      "byteOffset": 155696,
      "componentType": 5126,
      "count": 3126,
      "max": [
        0.9978592395782471,
        0.992355227470398
      ],
      "min": [
        0.002140751574188471,
        0.0021407476160675287
      ],
      "type": "VEC2"
    },
    {
      "bufferView": 0,
      "byteOffset": 124056,
      "componentType": 5125,
      "count": 4872,
      "type": "SCALAR"
    },
    {
      "bufferView": 2,
      "byteOffset": 542112,
      "componentType": 5126,
      "count": 2378,
      "max": [
        0.3662833571434021,
        0.36628150939941406,
        0.03454908728599548
      ],
      "min": [
        -0.3662833571434021,
        -0.3662853240966797,
        -0.03454908728599548
      ],
      "type": "VEC3"
    },
    {
      "bufferView": 2,
      "byteOffset": 570648,
      "componentType": 5126,
      "count": 2378,
      "max": [
        1.0,
        1.0,
        1.0
      ],
      "min": [
        -1.0,
        -1.0,
        -1.0
      ],
      "type": "VEC3"
    },
    {
      "bufferView": 3,
      "byteOffset": 361408,
      "componentType": 5126,
      "count": 2378,
      "max": [
        1.0,
        1.0,
        1.0,
        1.0
      ],
      "min": [
        -1.0,
        -1.0,
        -1.0,
        -1.0
      ],
      "type": "VEC4"
    },
    {
      "bufferView": 1,
      "byteOffset": 180704,
      "componentType": 5126,
      "count": 2378,
      "max": [
        0.9948914051055908,
        0.9981327056884766
      ],
      "min": [
        0.0018674054881557822,
        0.0018674005987122655
      ],
      "type": "VEC2"
    },
    {
      "bufferView": 0,
      "byteOffset": 143544,
      "componentType": 5125,
      "count": 3744,
      "type": "SCALAR"
    },
    {
      "bufferView": 2,
      "byteOffset": 599184,
      "componentType": 5126,
      "count": 3618,
      "max": [
        0.38025858998298645,
        0.3786959648132324,
        0.023030512034893036
      ],
      "min": [
        -0.37715810537338257,
        -0.378720760345459,
        -0.023030508309602737
      ],
      "type": "VEC3"
    },
    {
      "bufferView": 2,
      "byteOffset": 642600,
      "componentType": 5126,
      "count": 3618,
      "max": [
        1.0,
        1.0,
        1.0
      ],
      "min": [
        -1.0,
        -1.0,
        -1.0
      ],
      "type": "VEC3"
    },
    {
      "bufferView": 3,
      "byteOffset": 399456,
      "componentType": 5126,
      "count": 3618,
      "max": [
        1.0,
        1.0,
        1.0,
        1.0
      ],
      "min": [
        -1.0,
        -1.0,
        -1.0,
        -1.0
      ],
      "type": "VEC4"
    },
    {
      "bufferView": 1,
      "byteOffset": 199728,
      "componentType": 5126,
      "count": 3618,
      "max": [
        0.9876647591590881,
        0.997769832611084
      ],
      "min": [
        0.002230187179520726,
        0.0022301897406578064
      ],
      "type": "VEC2"
    },
    {
      "bufferView": 0,
      "byteOffset": 158520,
      "componentType": 5125,
      "count": 5658,
      "type": "SCALAR"
    },
    {
      "bufferView": 2,
      "byteOffset": 686016,
      "componentType": 5126,
      "count": 2096,
      "max": [
        0.37999486923217773,
        0.37999439239501953,
        0.021061642095446587
      ],
      "min": [
        -0.37999391555786133,
        -0.37999439239501953,
        -0.021061642095446587
      ],
      "type": "VEC3"
    },
    {
      "bufferView": 2,
      "byteOffset": 711168,
      "componentType": 5126,
      "count": 2096,
      "max": [
        1.0,
        1.0,
        1.0
      ],
      "min": [
        -1.0,
        -1.0,
        -1.0
      ],
      "type": "VEC3"
    },
    {
      "bufferView": 3,
      "byteOffset": 457344,
      "componentType": 5126,
      "count": 2096,
      "max": [
        1.0,
        1.0,
        1.0,
        1.0
      ],
      "min": [
        -1.0,
        -1.0,
        -1.0,
        1.0
      ],
      "type": "VEC4"
    },
    {
      "bufferView": 1,
      "byteOffset": 228672,
      "componentType": 5126,
      "count": 2096,
      "max": [
        0.9926089644432068,
        0.998270571231842
      ],
      "min": [
        0.0017294223653152585,
        0.0017294069984927773
      ],
      "type": "VEC2"
    },
    {
      "bufferView": 0,
      "byteOffset": 181152,
      "componentType": 5125,
      "count": 3288,
      "type": "SCALAR"
    },
    {
      "bufferView": 2,
      "byteOffset": 736320,
      "componentType": 5126,
      "count": 2786,
      "max": [
        0.40056633949279785,
        0.4005606174468994,
        0.01877123862504959
      ],
      "min": [
        -0.4005591869354248,
        -0.40056490898132324,
        -0.018771257251501083
      ],
      "type": "VEC3"
    },
    {
      "bufferView": 2,
      "byteOffset": 769752,
      "componentType": 5126,
      "count": 2786,
      "max": [
        1.0,
        1.0,
        1.0
      ],
      "min": [
        -1.0,
        -1.0,
        -1.0
      ],
      "type": "VEC3"
    },
    {
      "bufferView": 3,
      "byteOffset": 490880,
      "componentType": 5126,
      "count": 2786,
      "max": [
        1.0,
        1.0,
        1.0,
        1.0
      ],
      "min": [
        -1.0,
        -1.0,
        -1.0,
        -1.0
      ],
      "type": "VEC4"
    },
    {
      "bufferView": 1,
      "byteOffset": 245440,
      "componentType": 5126,
      "count": 2786,
      "max": [
        0.9979774951934814,
        0.9790924191474915
      ],
      "min": [
        0.0020227457862347364,
        0.0020228407811373472
      ],
      "type": "VEC2"
    },
    {
      "bufferView": 0,
      "byteOffset": 194304,
      "componentType": 5125,
      "count": 4368,
      "type": "SCALAR"
    },
    {
      "bufferView": 2,
      "byteOffset": 803184,
      "componentType": 5126,
      "count": 2835,
      "max": [
        0.3779200315475464,
        0.37899112701416016,
        0.02165103890001774
      ],
      "min": [
        -0.3791992664337158,
        -0.3781280517578125,
        -0.021651040762662888
      ],
      "type": "VEC3"
    },
    {
      "bufferView": 2,
      "byteOffset": 837204,
      "componentType": 5126,
      "count": 2835,
      "max": [
        1.0,
        1.0,
        1.0
      ],
      "min": [
        -1.0,
        -1.0,
        -1.0
      ],
      "type": "VEC3"
    },
    {
      "bufferView": 3,
      "byteOffset": 535456,
      "componentType": 5126,
      "count": 2835,
      "max": [
        1.0,
        1.0,
        1.0,
        1.0
      ],
      "min": [
        -1.0,
        -1.0,
        -1.0,
        -1.0
      ],
      "type": "VEC4"
    },
    {
      "bufferView": 1,
      "byteOffset": 267728,
      "componentType": 5126,
      "count": 2835,
      "max": [
        0.9982051849365234,
        0.9828233122825623
      ],
      "min": [
        0.0004916004836559296,
        -0.10759870707988739
      ],
      "type": "VEC2"
    },
    {
      "bufferView": 0,
      "byteOffset": 211776,
      "componentType": 5125,
      "count": 5325,
      "type": "SCALAR"
    },
    {
      "bufferView": 2,
      "byteOffset": 871224,
      "componentType": 5126,
      "count": 1580,
      "max": [
        0.3907136917114258,
        0.3907136917114258,
        0.024832159280776978
      ],
      "min": [
        -0.39071428775787354,
        -0.3907144069671631,
        -0.024832166731357574
      ],
      "type": "VEC3"
    },
    {
      "bufferView": 2,
      "byteOffset": 890184,
      "componentType": 5126,
      "count": 1580,
      "max": [
        1.0,
        1.0,
        1.0
      ],
      "min": [
        -1.0,
        -1.0,
        -1.0
      ],
      "type": "VEC3"
    },
    {
      "bufferView": 3,
      "byteOffset": 580816,
      "componentType": 5126,
      "count": 1580,
      "max": [
        0.9917100071907043,
        0.9999852776527405,
        1.0,
        1.0
      ],
      "min": [
        -0.9917100071907043,
        -0.9999852776527405,
        -1.0,
        1.0
      ],
      "type": "VEC4"
    },
    {
      "bufferView": 1,
      "byteOffset": 290408,
      "componentType": 5126,
      "count": 1580,
      "max": [
        0.9932929277420044,
        0.99848872423172
      ],
      "min": [
        0.001511377515271306,
        0.0015113725094124675
      ],
      "type": "VEC2"
    },
    {
      "bufferView": 0,
      "byteOffset": 233076,
      "componentType": 5125,
      "count": 2448,
      "type": "SCALAR"
    },
    {
      "bufferView": 2,
      "byteOffset": 909144,
      "componentType": 5126,
      "count": 3182,
      "max": [
        0.40959125757217407,
        0.4095900058746338,
        0.01985357142984867
      ],
      "min": [
        -0.40959182381629944,
        -0.4095933437347412,
        -0.019853567704558372
      ],
      "type": "VEC3"
    },
    {
      "bufferView": 2,
      "byteOffset": 947328,
      "componentType": 5126,
      "count": 3182,
      "max": [
        1.0,
        1.0,
        1.0
      ],
      "min": [
        -1.0,
        -1.0,
        -1.0
      ],
      "type": "VEC3"
    },
    {
      "bufferView": 3,
      "byteOffset": 606096,
      "componentType": 5126,
      "count": 3182,
      "max": [
        1.0,
        1.0,
        1.0,
        1.0
      ],
      "min": [
        -1.0,
        -0.999995231628418,
        -1.0,
        1.0
      ],
      "type": "VEC4"
    },
    {
      "bufferView": 1,
      "byteOffset": 303048,
      "componentType": 5126,
      "count": 3182,
      "max": [
        0.9978144764900208,
        0.9889097809791565
      ],
      "min": [
        0.0021855977829545736,
        0.002185557037591934
      ],
      "type": "VEC2"
    },
    {
      "bufferView": 0,
      "byteOffset": 242868,
      "componentType": 5125,
      "count": 5040,
      "type": "SCALAR"
    },
    {
      "bufferView": 2,
      "byteOffset": 985512,
      "componentType": 5126,
      "count": 2850,
      "max": [
        0.42430925369262695,
        0.4243299961090088,
        0.02686656080186367
      ],
      "min": [
        -0.42432987689971924,
        -0.4243295192718506,
        -0.026866557076573372
      ],
      "type": "VEC3"
    },
    {
      "bufferView": 2,
      "byteOffset": 1019712,
      "componentType": 5126,
      "count": 2850,
      "max": [
        1.0,
        1.0,
        1.0
      ],
      "min": [
        -1.0,
        -1.0,
        -1.0
      ],
      "type": "VEC3"
    },
    {
      "bufferView": 3,
      "byteOffset": 657008,
      "componentType": 5126,
      "count": 2850,
      "max": [
        0.9967994093894958,
        0.9982151985168457,
        1.0,
        1.0
      ],
      "min": [
        -0.9998126029968262,
        -0.9967995285987854,
        -1.0,
        -1.0
      ],
      "type": "VEC4"
    },
    {
      "bufferView": 1,
      "byteOffset": 328504,
      "componentType": 5126,
      "count": 2850,
      "max": [
        0.9980977773666382,
        0.9961568117141724
      ],
      "min": [
        0.0019021565094590187,
        0.0019021498737856746
      ],
      "type": "VEC2"
    },
    {
      "bufferView": 0,
      "byteOffset": 263028,
      "componentType": 5125,
      "count": 4656,
      "type": "SCALAR"
    },
    {
      "bufferView": 2,
      "byteOffset": 1053912,
      "componentType": 5126,
      "count": 3162,
      "max": [
        0.4109632670879364,
        0.4109635353088379,
        0.01640578731894493
      ],
      "min": [
        -0.410962849855423,
        -0.4109625816345215,
        -0.016405779868364334
      ],
      "type": "VEC3"
    },
    {
      "bufferView": 2,
      "byteOffset": 1091856,
      "componentType": 5126,
      "count": 3162,
      "max": [
        1.0,
        1.0,
        1.0
      ],
      "min": [
        -1.0,
        -1.0,
        -1.0
      ],
      "type": "VEC3"
    },
    {
      "bufferView": 3,
      "byteOffset": 702608,
      "componentType": 5126,
      "count": 3162,
      "max": [
        0.9998183846473694,
        0.9998183846473694,
        1.0,
        1.0
      ],
      "min": [
        -0.9998183846473694,
        -0.9998183846473694,
        -1.0,
        -1.0
      ],
      "type": "VEC4"
    },
    {
      "bufferView": 1,
      "byteOffset": 351304,
      "componentType": 5126,
      "count": 3162,
      "max": [
        0.9879438281059265,
        0.998108983039856
      ],
      "min": [
        0.0018910866929218173,
        0.0018910758662968874
      ],
      "type": "VEC2"
    },
    {
      "bufferView": 0,
      "byteOffset": 281652,
      "componentType": 5125,
      "count": 5256,
      "type": "SCALAR"
    },
    {
      "bufferView": 2,
      "byteOffset": 1129800,
      "componentType": 5126,
      "count": 1690,
      "max": [
        0.3845796585083008,
        0.38491225242614746,
        0.03160442039370537
      ],
      "min": [
        -0.38101816177368164,
        -0.3849027156829834,
        -0.03160445764660835
      ],
      "type": "VEC3"
    },
    {
      "bufferView": 2,
      "byteOffset": 1150080,
      "componentType": 5126,
      "count": 1690,
      "max": [
        1.0,
        1.0,
        1.0
      ],
      "min": [
        -1.0,
        -1.0,
        -1.0
      ],
      "type": "VEC3"
    },
    {
      "bufferView": 3,
      "byteOffset": 753200,
      "componentType": 5126,
      "count": 1690,
      "max": [
        1.0,
        1.0,
        1.0,
        1.0
      ],
      "min": [
        -1.0,
        -1.0,
        -1.0,
        1.0
      ],
      "type": "VEC4"
    },
    {
      "bufferView": 1,
      "byteOffset": 376600,
      "componentType": 5126,
      "count": 1690,
      "max": [
        0.9937050342559814,
        0.998280942440033
      ],
      "min": [
        0.0017190859653055668,
        0.0017190685030072927
      ],
      "type": "VEC2"
    },
    {
      "bufferView": 0,
      "byteOffset": 302676,
      "componentType": 5125,
      "count": 2652,
      "type": "SCALAR"
    },
    {
      "bufferView": 2,
      "byteOffset": 1170360,
      "componentType": 5126,
      "count": 2158,
      "max": [
        0.38491111993789673,
        0.38491249084472656,
        0.020773498341441154
      ],
      "min": [
        -0.3849112391471863,
        -0.38491010665893555,
        -0.020773502066731453
      ],
      "type": "VEC3"
    },
    {
      "bufferView": 2,
      "byteOffset": 1196256,
      "componentType": 5126,
      "count": 2158,
      "max": [
        1.0,
        1.0,
        1.0
      ],
      "min": [
        -1.0,
        -1.0,
        -1.0
      ],
      "type": "VEC3"
    },
    {
      "bufferView": 3,
      "byteOffset": 780240,
      "componentType": 5126,
      "count": 2158,
      "max": [
        1.0,
        1.0,
        1.0,
        1.0
      ],
      "min": [
        -1.0,
        -1.0,
        -1.0,
        -1.0
      ],
      "type": "VEC4"
    },
    {
      "bufferView": 1,
      "byteOffset": 390120,
      "componentType": 5126,
      "count": 2158,
      "max": [
        0.9911947846412659,
        0.9981488585472107
      ],
      "min": [
        0.0018511594971641898,
        0.0018511071102693677
      ],
      "type": "VEC2"
    },
    {
      "bufferView": 0,
      "byteOffset": 313284,
      "componentType": 5125,
      "count": 3444,
      "type": "SCALAR"
    },
    {
      "bufferView": 2,
      "byteOffset": 1222152,
      "componentType": 5126,
      "count": 2650,
      "max": [
        0.38360100984573364,
        0.38360095024108887,
        0.0317816361784935
      ],
      "min": [
        -0.38360172510147095,
        -0.3836019039154053,
        -0.0317816287279129
      ],
      "type": "VEC3"
    },
    {
      "bufferView": 2,
      "byteOffset": 1253952,
      "componentType": 5126,
      "count": 2650,
      "max": [
        1.0,
        1.0,
        1.0
      ],
      "min": [
        -1.0,
        -1.0,
        -1.0
      ],
      "type": "VEC3"
    },
    {
      "bufferView": 3,
      "byteOffset": 814768,
      "componentType": 5126,
      "count": 2650,
      "max": [
        1.0,
        1.0,
        1.0,
        1.0
      ],
      "min": [
        -1.0,
        -1.0,
        -1.0,
        1.0
      ],
      "type": "VEC4"
    },
    {
      "bufferView": 1,
      "byteOffset": 407384,
      "componentType": 5126,
      "count": 2650,
      "max": [
        0.9937730431556702,
        0.9981169700622559
      ],
      "min": [
        0.0018830654444172978,
        0.001883064629510045
      ],
      "type": "VEC2"
    },
    {
      "bufferView": 0,
      "byteOffset": 327060,
      "componentType": 5125,
      "count": 4248,
      "type": "SCALAR"
    },
    {
      "bufferView": 2,
      "byteOffset": 1285752,
      "componentType": 5126,
      "count": 3304,
      "max": [
        0.3864330053329468,
        0.38643646240234375,
        0.024088623002171516
      ],
      "min": [
        -0.3864377737045288,
        -0.38643455505371094,
        -0.024088623002171516
      ],
      "type": "VEC3"
    },
    {
      "bufferView": 2,
      "byteOffset": 1325400,
      "componentType": 5126,
      "count": 3304,
      "max": [
        1.0,
        1.0,
        1.0
      ],
      "min": [
        -1.0,
        -1.0,
        -1.0
      ],
      "type": "VEC3"
    },
    {
      "bufferView": 3,
      "byteOffset": 857168,
      "componentType": 5126,
      "count": 3304,
      "max": [
        1.0,
        1.0,
        1.0,
        1.0
      ],
      "min": [
        -1.0,
        -1.0,
        -1.0,
        1.0
      ],
      "type": "VEC4"
    },
    {
      "bufferView": 1,
      "byteOffset": 428584,
      "componentType": 5126,
      "count": 3304,
      "max": [
        0.9979038238525391,
        0.9860396385192871
      ],
      "min": [
        0.002096266718581319,
        0.0020962513517588377
      ],
      "type": "VEC2"
    },
    {
      "bufferView": 0,
      "byteOffset": 344052,
      "componentType": 5125,
      "count": 5586,
      "type": "SCALAR"
    }
  ],
  "asset": {
    "extras": {
      "author": "KapetS (https://sketchfab.com/sleeepy_owl)",
      "license": "CC-BY-4.0 (http://creativecommons.org/licenses/by/4.0/)",
      "source": "https://sketchfab.com/3d-models/free-lowpoly-steampunk-gears-pack-249b36110c7f42158d6420c17e5e6f76",
      "title": "Free lowpoly steampunk gears pack"
    },
    "generator": "Sketchfab-16.60.0",
    "version": "2.0"
  },
  "bufferViews": [
    {
      "buffer": 0,
      "byteLength": 366396,
      "name": "floatBufferViews",
      "target": 34963
    },
    {
      "buffer": 0,
      "byteLength": 455016,
      "byteOffset": 366396,
      "byteStride": 8,
      "name": "floatBufferViews",
      "target": 34962
    },
    {
      "buffer": 0,
      "byteLength": 1365048,
      "byteOffset": 821412,
      "byteStride": 12,
      "name": "floatBufferViews",
      "target": 34962
    },
    {
      "buffer": 0,
      "byteLength": 910032,
      "byteOffset": 2186460,
      "byteStride": 16,
      "name": "floatBufferViews",
      "target": 34962
    }
  ],
  "buffers": [
    {
      "byteLength": 3096492,
      "uri": "scene.bin"
    }
  ],
  "extensionsUsed": [
    "KHR_materials_specular"
  ],
  "images": [
    {
      "uri": "textures/material_baseColor.png"
    },
    {
      "uri": "textures/material_metallicRoughness.png"
    },
    {
      "uri": "textures/material_normal.png"
    },
    {
      "uri": "textures/material_1_baseColor.png"
    },
    {
      "uri": "textures/material_1_metallicRoughness.png"
    },
    {
      "uri": "textures/material_1_normal.png"
    },
    {
      "uri": "textures/material_2_baseColor.png"
    },
    {
      "uri": "textures/material_2_metallicRoughness.png"
    },
    {
      "uri": "textures/material_2_normal.png"
    },
    {
      "uri": "textures/material_3_baseColor.png"
    },
    {
      "uri": "textures/material_3_metallicRoughness.png"
    },
    {
      "uri": "textures/material_3_normal.png"
    },
    {
      "uri": "textures/material_4_baseColor.png"
    },
    {
      "uri": "textures/material_4_metallicRoughness.png"
    },
    {
      "uri": "textures/material_4_normal.png"
    },
    {
      "uri": "textures/material_5_baseColor.png"
    },
    {
      "uri": "textures/material_5_metallicRoughness.png"
    },
    {
      "uri": "textures/material_5_normal.png"
    },
    {
      "uri": "textures/material_6_baseColor.png"
    },
    {
      "uri": "textures/material_6_metallicRoughness.png"
    },
    {
      "uri": "textures/material_6_normal.png"
    },
    {
      "uri": "textures/material_7_baseColor.png"
    },
    {
      "uri": "textures/material_7_metallicRoughness.png"
    },
    {
      "uri": "textures/material_7_normal.png"
    },
    {
      "uri": "textures/material_8_baseColor.png"
    },
    {
      "uri": "textures/material_8_metallicRoughness.png"
    },
    {
      "uri": "textures/material_8_normal.png"
    },
    {
      "uri": "textures/material_9_baseColor.png"
    },
    {
      "uri": "textures/material_9_metallicRoughness.png"
    },
    {
      "uri": "textures/material_9_normal.png"
    },
    {
      "uri": "textures/material_10_baseColor.png"
    },
    {
      "uri": "textures/material_10_metallicRoughness.png"
    },
    {
      "uri": "textures/material_10_normal.png"
    },
    {
      "uri": "textures/material_11_baseColor.png"
    },
    {
      "uri": "textures/material_11_metallicRoughness.png"
    },
    {
      "uri": "textures/material_11_normal.png"
    },
    {
      "uri": "textures/material_12_baseColor.png"
    },
    {
      "uri": "textures/material_12_metallicRoughness.png"
    },
    {
      "uri": "textures/material_12_normal.png"
    },
    {
      "uri": "textures/material_13_baseColor.png"
    },
    {
      "uri": "textures/material_13_metallicRoughness.png"
    },
    {
      "uri": "textures/material_13_normal.png"
    },
    {
      "uri": "textures/material_14_baseColor.png"
    },
    {
      "uri": "textures/material_14_metallicRoughness.png"
    },
    {
      "uri": "textures/material_14_normal.png"
    },
    {
      "uri": "textures/material_15_baseColor.png"
    },
    {
      "uri": "textures/material_15_metallicRoughness.png"
    },
    {
      "uri": "textures/material_15_normal.png"
    },
    {
      "uri": "textures/material_16_baseColor.png"
    },
    {
      "uri": "textures/material_16_metallicRoughness.png"
    },
    {
      "uri": "textures/material_16_normal.png"
    },
    {
      "uri": "textures/material_17_baseColor.png"
    },
    {
      "uri": "textures/material_17_metallicRoughness.png"
    },
    {
      "uri": "textures/material_17_normal.png"
    },
    {
      "uri": "textures/material_18_baseColor.png"
    },
    {
      "uri": "textures/material_18_metallicRoughness.png"
    },
    {
      "uri": "textures/material_18_normal.png"
    },
    {
      "uri": "textures/material_19_baseColor.png"
    },
    {
      "uri": "textures/material_19_metallicRoughness.png"
    },
    {
      "uri": "textures/material_19_normal.png"
    }
  ],
  "materials": [
    {
      "doubleSided": true,
      "extensions": {
        "KHR_materials_specular": {
          "specularColorFactor": [
            1.0,
            1.0,
            1.0
          ],
          "specularFactor": 0.0
        }
      },
      "name": "material",
      "normalTexture": {
        "index": 2
      },
      "pbrMetallicRoughness": {
        "baseColorTexture": {
          "index": 0
        },
        "metallicFactor": 0.7,
        "metallicRoughnessTexture": {
          "index": 1
        },
        "roughnessFactor": 0.4373346661627921
      }
    },
    {
      "doubleSided": true,
      "extensions": {
        "KHR_materials_specular": {
          "specularColorFactor": [
            1.0,
            1.0,
            1.0
          ],
          "specularFactor": 0.0
        }
      },
      "name": "material_1",
      "normalTexture": {
        "index": 5
      },
      "pbrMetallicRoughness": {
        "baseColorTexture": {
          "index": 3
        },
        "metallicFactor": 0.7177164730406796,
        "metallicRoughnessTexture": {
          "index": 4
        },
        "roughnessFactor": 0.41295363947775837
      }
    },
    {
      "doubleSided": true,
      "extensions": {
        "KHR_materials_specular": {
          "specularColorFactor": [
            1.0,
            1.0,
            1.0
          ],
          "specularFactor": 0.0
        }
      },
      "name": "material_2",
      "normalTexture": {
        "index": 8
      },
      "pbrMetallicRoughness": {
        "baseColorTexture": {
          "index": 6
        },
        "metallicFactor": 0.7,
        "metallicRoughnessTexture": {
          "index": 7
        },
        "roughnessFactor": 0.4007631261352415
      }
    },
    {
      "doubleSided": true,
      "extensions": {
        "KHR_materials_specular": {
          "specularColorFactor": [
            1.0,
            1.0,
            1.0
          ],
          "specularFactor": 0.0
        }
      },
      "name": "material_3",
      "normalTexture": {
        "index": 11
      },
      "pbrMetallicRoughness": {
        "baseColorTexture": {
          "index": 9
        },
        "metallicFactor": 0.7,
        "metallicRoughnessTexture": {
          "index": 10
        },
        "roughnessFactor": 0.4434299228340505
      }
    },
    {
      "doubleSided": true,
      "extensions": {
        "KHR_materials_specular": {
          "specularColorFactor": [
            1.0,
            1.0,
            1.0
          ],
          "specularFactor": 0.0
        }
      },
      "name": "material_4",
      "normalTexture": {
        "index": 14
      },
      "pbrMetallicRoughness": {
        "baseColorTexture": {
          "index": 12
        },
        "metallicFactor": 0.7,
        "metallicRoughnessTexture": {
          "index": 13
        },
        "roughnessFactor": 0.4678109495190842
      }
    },
    {
      "doubleSided": true,
      "extensions": {
        "KHR_materials_specular": {
          "specularColorFactor": [
            1.0,
            1.0,
            1.0
          ],
          "specularFactor": 0.0
        }
      },
      "name": "material_5",
      "normalTexture": {
        "index": 17
      },
      "pbrMetallicRoughness": {
        "baseColorTexture": {
          "index": 15
        },
        "metallicFactor": 0.4678109495190842,
        "metallicRoughnessTexture": {
          "index": 16
        },
        "roughnessFactor": 0.2971437627238483
      }
    },
    {
      "doubleSided": true,
      "extensions": {
        "KHR_materials_specular": {
          "specularColorFactor": [
            1.0,
            1.0,
            1.0
          ],
          "specularFactor": 0.0
        }
      },
      "name": "material_6",
      "normalTexture": {
        "index": 20
      },
      "pbrMetallicRoughness": {
        "baseColorTexture": {
          "index": 18
        },
        "metallicFactor": 0.7,
        "metallicRoughnessTexture": {
          "index": 19
        },
        "roughnessFactor": 0.4190488961490168
      }
    },
    {
      "doubleSided": true,
      "extensions": {
        "KHR_materials_specular": {
          "specularColorFactor": [
            1.0,
            1.0,
            1.0
          ],
          "specularFactor": 0.0
        }
      },
      "name": "material_7",
      "normalTexture": {
        "index": 23
      },
      "pbrMetallicRoughness": {
        "baseColorTexture": {
          "index": 21
        },
        "metallicFactor": 0.7,
        "metallicRoughnessTexture": {
          "index": 22
        },
        "roughnessFactor": 0.43123940949153367
      }
    },
    {
      "doubleSided": true,
      "extensions": {
        "KHR_materials_specular": {
          "specularColorFactor": [
            1.0,
            1.0,
            1.0
          ],
          "specularFactor": 0.0
        }
      },
      "name": "material_8",
      "normalTexture": {
        "index": 26
      },
      "pbrMetallicRoughness": {
        "baseColorTexture": {
          "index": 24
        },
        "metallicFactor": 0.7,
        "metallicRoughnessTexture": {
          "index": 25
        },
        "roughnessFactor": 0.3520010727651741
      }
    },
    {
      "doubleSided": true,
      "extensions": {
        "KHR_materials_specular": {
          "specularColorFactor": [
            1.0,
            1.0,
            1.0
          ],
          "specularFactor": 0.0
        }
      },
      "name": "material_9",
      "normalTexture": {
        "index": 29
      },
      "pbrMetallicRoughness": {
        "baseColorTexture": {
          "index": 27
        },
        "metallicFactor": 0.7,
        "metallicRoughnessTexture": {
          "index": 28
        },
        "roughnessFactor": 0.364191586107691
      }
    },
    {
      "doubleSided": true,
      "extensions": {
        "KHR_materials_specular": {
          "specularColorFactor": [
            1.0,
            1.0,
            1.0
          ],
          "specularFactor": 0.0
        }
      },
      "name": "material_10",
      "normalTexture": {
        "index": 32
      },
      "pbrMetallicRoughness": {
        "baseColorTexture": {
          "index": 30
        },
        "metallicFactor": 0.7,
        "metallicRoughnessTexture": {
          "index": 31
        },
        "roughnessFactor": 0.42514415282027523
      }
    },
    {
      "doubleSided": true,
      "extensions": {
        "KHR_materials_specular": {
          "specularColorFactor": [
            1.0,
            1.0,
            1.0
          ],
          "specularFactor": 0.0
        }
      },
      "name": "material_11",
      "normalTexture": {
        "index": 35
      },
      "pbrMetallicRoughness": {
        "baseColorTexture": {
          "index": 33
        },
        "metallicFactor": 0.7,
        "metallicRoughnessTexture": {
          "index": 34
        },
        "roughnessFactor": 0.3946678694639831
      }
    },
    {
      "doubleSided": true,
      "extensions": {
        "KHR_materials_specular": {
          "specularColorFactor": [
            1.0,
            1.0,
            1.0
          ],
          "specularFactor": 0.0
        }
      },
      "name": "material_12",
      "normalTexture": {
        "index": 38
      },
      "pbrMetallicRoughness": {
        "baseColorTexture": {
          "index": 36
        },
        "metallicRoughnessTexture": {
          "index": 37
        },
        "roughnessFactor": 0.5531445429167022
      }
    },
    {
      "doubleSided": true,
      "extensions": {
        "KHR_materials_specular": {
          "specularColorFactor": [
            1.0,
            1.0,
            1.0
          ],
          "specularFactor": 0.0
        }
      },
      "name": "material_13",
      "normalTexture": {
        "index": 41
      },
      "pbrMetallicRoughness": {
        "baseColorTexture": {
          "index": 39
        },
        "metallicFactor": 0.7,
        "metallicRoughnessTexture": {
          "index": 40
        },
        "roughnessFactor": 0.4007631261352415
      }
    },
    {
      "doubleSided": true,
      "extensions": {
        "KHR_materials_specular": {
          "specularColorFactor": [
            1.0,
            1.0,
            1.0
          ],
          "specularFactor": 0.0
        }
      },
      "name": "material_14",
      "normalTexture": {
        "index": 44
      },
      "pbrMetallicRoughness": {
        "baseColorTexture": {
          "index": 42
        },
        "metallicFactor": 0.6994307030269045,
        "metallicRoughnessTexture": {
          "index": 43
        },
        "roughnessFactor": 0.38247735612146627
      }
    },
    {
      "doubleSided": true,
      "extensions": {
        "KHR_materials_specular": {
          "specularColorFactor": [
            1.0,
            1.0,
            1.0
          ],
          "specularFactor": 0.0
        }
      },
      "name": "material_15",
      "normalTexture": {
        "index": 47
      },
      "pbrMetallicRoughness": {
        "baseColorTexture": {
          "index": 45
        },
        "metallicFactor": 0.7,
        "metallicRoughnessTexture": {
          "index": 46
        },
        "roughnessFactor": 0.3154295327376236
      }
    },
    {
      "doubleSided": true,
      "extensions": {
        "KHR_materials_specular": {
          "specularColorFactor": [
            1.0,
            1.0,
            1.0
          ],
          "specularFactor": 0.0
        }
      },
      "name": "material_16",
      "normalTexture": {
        "index": 50
      },
      "pbrMetallicRoughness": {
        "baseColorTexture": {
          "index": 48
        },
        "metallicFactor": 0.7,
        "metallicRoughnessTexture": {
          "index": 49
        },
        "roughnessFactor": 0.2971437627238483
      }
    },
    {
      "doubleSided": true,
      "extensions": {
        "KHR_materials_specular": {
          "specularColorFactor": [
            1.0,
            1.0,
            1.0
          ],
          "specularFactor": 0.0
        }
      },
      "name": "material_17",
      "normalTexture": {
        "index": 53
      },
      "pbrMetallicRoughness": {
        "baseColorTexture": {
          "index": 51
        },
        "metallicFactor": 0.7,
        "metallicRoughnessTexture": {
          "index": 52
        },
        "roughnessFactor": 0.364191586107691
      }
    },
    {
      "doubleSided": true,
      "extensions": {
        "KHR_materials_specular": {
          "specularColorFactor": [
            1.0,
            1.0,
            1.0
          ],
          "specularFactor": 0.0
        }
      },
      "name": "material_18",
      "normalTexture": {
        "index": 56
      },
      "pbrMetallicRoughness": {
        "baseColorTexture": {
          "index": 54
        },
        "metallicFactor": 0.7,
        "metallicRoughnessTexture": {
          "index": 55
        },
        "roughnessFactor": 0.38247735612146627
      }
    },
    {
      "doubleSided": true,
      "extensions": {
        "KHR_materials_specular": {
          "specularColorFactor": [
            1.0,
            1.0,
            1.0
          ],
          "specularFactor": 0.0
        }
      },
      "name": "material_19",
      "normalTexture": {
        "index": 59
      },
      "pbrMetallicRoughness": {
        "baseColorTexture": {
          "index": 57
        },
        "metallicFactor": 0.7,
        "metallicRoughnessTexture": {
          "index": 58
        },
        "roughnessFactor": 0.41295363947775837
      }
    }
  ],
  "meshes": [
    {
      "name": "1.1_1.1_0",
      "primitives": [
        {
          "attributes": {
            "NORMAL": 1,
            "POSITION": 0,
            "TANGENT": 2,
            "TEXCOORD_0": 3
          },
          "indices": 4,
          "material": 0,
          "mode": 4
        }
      ]
    },
    {
      "name": "1.2_1.2_0",
      "primitives": [
        {
          "attributes": {
            "NORMAL": 6,
            "POSITION": 5,
            "TANGENT": 7,
            "TEXCOORD_0": 8
          },
          "indices": 9,
          "material": 1,
          "mode": 4
        }
      ]
    },
    {
      "name": "1.3_1.3_0",
      "primitives": [
        {
          "attributes": {
            "NORMAL": 11,
            "POSITION": 10,
            "TANGENT": 12,
            "TEXCOORD_0": 13
          },
          "indices": 14,
          "material": 2,
          "mode": 4
        }
      ]
    },
    {
      "name": "1.4_1.4_0",
      "primitives": [
        {
          "attributes": {
            "NORMAL": 16,
            "POSITION": 15,
            "TANGENT": 17,
            "TEXCOORD_0": 18
          },
          "indices": 19,
          "material": 3,
          "mode": 4
        }
      ]
    },
    {
      "name": "1.5_1.5_0",
      "primitives": [
        {
          "attributes": {
            "NORMAL": 21,
            "POSITION": 20,
            "TANGENT": 22,
            "TEXCOORD_0": 23
          },
          "indices": 24,
          "material": 4,
          "mode": 4
        }
      ]
    },
    {
      "name": "2.1_2.1_0",
      "primitives": [
        {
          "attributes": {
            "NORMAL": 26,
            "POSITION": 25,
            "TANGENT": 27,
            "TEXCOORD_0": 28
          },
          "indices": 29,
          "material": 5,
          "mode": 4
        }
      ]
    },
    {
      "name": "2.2_2.2_0",
      "primitives": [
        {
          "attributes": {
            "NORMAL": 31,
            "POSITION": 30,
            "TANGENT": 32,
            "TEXCOORD_0": 33
          },
          "indices": 34,
          "material": 6,
          "mode": 4
        }
      ]
    },
    {
      "name": "2.3_2.3_0",
      "primitives": [
        {
          "attributes": {
            "NORMAL": 36,
            "POSITION": 35,
            "TANGENT": 37,
            "TEXCOORD_0": 38
          },
          "indices": 39,
          "material": 7,
          "mode": 4
        }
      ]
    },
    {
      "name": "2.4_2.4_0",
      "primitives": [
        {
          "attributes": {
            "NORMAL": 41,
            "POSITION": 40,
            "TANGENT": 42,
            "TEXCOORD_0": 43
          },
          "indices": 44,
          "material": 8,
          "mode": 4
        }
      ]
    },
    {
      "name": "2.5_2.5_0",
      "primitives": [
        {
          "attributes": {
            "NORMAL": 46,
            "POSITION": 45,
            "TANGENT": 47,
            "TEXCOORD_0": 48
          },
          "indices": 49,
          "material": 9,
          "mode": 4
        }
      ]
    },
    {
      "name": "3.1_3.1_0",
      "primitives": [
        {
          "attributes": {
            "NORMAL": 51,
            "POSITION": 50,
            "TANGENT": 52,
            "TEXCOORD_0": 53
          },
          "indices": 54,
          "material": 10,
          "mode": 4
        }
      ]
    },
    {
      "name": "3.2_3.2_0",
      "primitives": [
        {
          "attributes": {
            "NORMAL": 56,
            "POSITION": 55,
            "TANGENT": 57,
            "TEXCOORD_0": 58
          },
          "indices": 59,
          "material": 11,
          "mode": 4
        }
      ]
    },
    {
      "name": "3.3_3.3_0",
      "primitives": [
        {
          "attributes": {
            "NORMAL": 61,
            "POSITION": 60,
            "TANGENT": 62,
            "TEXCOORD_0": 63
          },
          "indices": 64,
          "material": 12,
          "mode": 4
        }
      ]
    },
    {
      "name": "3.4_3.4_0",
      "primitives": [
        {
          "attributes": {
            "NORMAL": 66,
            "POSITION": 65,
            "TANGENT": 67,
            "TEXCOORD_0": 68
          },
          "indices": 69,
          "material": 13,
          "mode": 4
        }
      ]
    },
    {
      "name": "3.5_3.5_0",
      "primitives": [
        {
          "attributes": {
            "NORMAL": 71,
            "POSITION": 70,
            "TANGENT": 72,
            "TEXCOORD_0": 73
          },
          "indices": 74,
          "material": 14,
          "mode": 4
        }
      ]
    },
    {
      "name": "4.1_4.1_0",
      "primitives": [
        {
          "attributes": {
            "NORMAL": 76,
            "POSITION": 75,
            "TANGENT": 77,
            "TEXCOORD_0": 78
          },
          "indices": 79,
          "material": 15,
          "mode": 4
        }
      ]
    },
    {
      "name": "4.2_4.2_0",
      "primitives": [
        {
          "attributes": {
            "NORMAL": 81,
            "POSITION": 80,
            "TANGENT": 82,
            "TEXCOORD_0": 83
          },
          "indices": 84,
          "material": 16,
          "mode": 4
        }
      ]
    },
    {
      "name": "4.3_4.3_0",
      "primitives": [
        {
          "attributes": {
            "NORMAL": 86,
            "POSITION": 85,
            "TANGENT": 87,
            "TEXCOORD_0": 88
          },
          "indices": 89,
          "material": 17,
          "mode": 4
        }
      ]
    },
    {
      "name": "4.4_4.4_0",
      "primitives": [
        {
          "attributes": {
            "NORMAL": 91,
            "POSITION": 90,
            "TANGENT": 92,
            "TEXCOORD_0": 93
          },
          "indices": 94,
          "material": 18,
          "mode": 4
        }
      ]
    },
    {
      "name": "4.5_4.5_0",
      "primitives": [
        {
          "attributes": {
            "NORMAL": 96,
            "POSITION": 95,
            "TANGENT": 97,
            "TEXCOORD_0": 98
          },
          "indices": 99,
          "material": 19,
          "mode": 4
        }
      ]
    }
  ],
  "nodes": [
    {
      "children": [
        1
      ],
      "matrix": [
        1.0,
        0.0,
        0.0,
        0.0,
        0.0,
        2.220446049250313e-16,
        -1.0,
        0.0,
        0.0,
        1.0,
        2.220446049250313e-16,
        0.0,
        0.0,
        0.0,
        0.0,
        1.0
      ],
      "name": "Sketchfab_model"
    },
    {
      "children": [
        2
      ],
      "matrix": [
        0.009999999776482582,
        0.0,
        0.0,
        0.0,
        0.0,
        0.0,
        0.009999999776482582,
        0.0,
        0.0,
        -0.009999999776482582,
        0.0,
        0.0,
        0.0,
        0.0,
        0.0,
        1.0
      ],
      "name": "Gears_ALL.fbx"
    },
    {
      "children": [
        3,
        5,
        7,
        9,
        11,
        13,
        15,
        17,
        19,
        21,
        23,
        25,
        27,
        29,
        31,
        33,
        35,
        37,
        39,
        41
      ],
      "name": "RootNode"
    },
    {
      "children": [
        4
      ],
      "matrix": [
        100.0,
        0.0,
        0.0,
        0.0,
        -0.0,
        -1.629206793918314e-05,
        -99.99999999999868,
        0.0,
        0.0,
        99.99999999999868,
        -1.629206793918314e-05,
        0.0,
        -319.2187805175781,
        3.4203330301352253e-07,
        -611.8987426757813,
        1.0
      ],
      "name": "1.1"
    },
    {
      "mesh": 0,
      "name": "1.1_1.1_0"
    },
    {
      "children": [
        6
      ],
      "matrix": [
        100.0,
        0.0,
        0.0,
        0.0,
        -0.0,
        -1.629206793918314e-05,
        -99.99999999999868,
        0.0,
        0.0,
        99.99999999999868,
        -1.629206793918314e-05,
        0.0,
        -203.24020385742188,
        -3.2393828064414265e-08,
        -611.3131713867188,
        1.0
      ],
      "name": "1.2"
    },
    {
      "mesh": 1,
      "name": "1.2_1.2_0"
    },
    {
      "children": [
        8
      ],
      "matrix": [
        100.0,
        0.0,
        0.0,
        0.0,
        -0.0,
        -1.629206793918314e-05,
        -99.99999999999868,
        0.0,
        0.0,
        99.99999999999868,
        -1.629206793918314e-05,
        0.0,
        -90.77615356445313,
        1.4352573352027775e-08,
        -612.4844360351563,
        1.0
      ],
      "name": "1.3"
    },
    {
      "mesh": 2,
      "name": "1.3_1.3_0"
    },
    {
      "children": [
        10
      ],
      "matrix": [
        100.0,
        0.0,
        0.0,
        0.0,
        0.0,
        -1.629206793918314e-05,
        -99.99999999999868,
        0.0,
        0.0,
        99.99999999999868,
        -1.629206793918314e-05,
        0.0,
        29.175874710083008,
        3.58764182806226e-08,
        -610.4796142578125,
        1.0
      ],
      "name": "1.4"
    },
    {
      "mesh": 3,
      "name": "1.4_1.4_0"
    },
    {
      "children": [
        12
      ],
      "matrix": [
        100.0,
        0.0,
        0.0,
        0.0,
        0.0,
        -1.629206793918314e-05,
        -99.99999999999868,
        0.0,
        0.0,
        99.99999999999868,
        -1.629206793918314e-05,
        0.0,
        152.2377166748047,
        -3.811971680534043e-07,
        -610.3335571289063,
        1.0
      ],
      "name": "1.5"
    },
    {
      "mesh": 4,
      "name": "1.5_1.5_0"
    },
    {
      "children": [
        14
      ],
      "matrix": [
        100.0,
        0.0,
        0.0,
        0.0,
        -0.0,
        -1.629206793918314e-05,
        -99.99999999999868,
        0.0,
        0.0,
        99.99999999999868,
        -1.629206793918314e-05,
        0.0,
        -321.0419921875,
        7.429884476550797e-07,
        -499.0718994140625,
        1.0
      ],
      "name": "2.1"
    },
    {
      "mesh": 5,
      "name": "2.1_2.1_0"
    },
    {
      "children": [
        16
      ],
      "matrix": [
        100.0,
        0.0,
        0.0,
        0.0,
        -0.0,
        -1.629206793918314e-05,
        -99.99999999999868,
        0.0,
        0.0,
        99.99999999999868,
        -1.629206793918314e-05,
        0.0,
        -203.42271423339844,
        2.423292016828782e-06,
        -498.84228515625,
        1.0
      ],
      "name": "2.2"
    },
    {
      "mesh": 6,
      "name": "2.2_2.2_0"
    },
    {
      "children": [
        18
      ],
      "matrix": [
        100.0,
        0.0,
        0.0,
        0.0,
        -0.0,
        -1.629206793918314e-05,
        -99.99999999999868,
        0.0,
        0.0,
        99.99999999999868,
        -1.629206793918314e-05,
        0.0,
        -91.31998443603516,
        -1.4000274717318462e-08,
        -498.14959716796875,
        1.0
      ],
      "name": "2.3"
    },
    {
      "mesh": 7,
      "name": "2.3_2.3_0"
    },
    {
      "children": [
        20
      ],
      "matrix": [
        100.0,
        0.0,
        0.0,
        0.0,
        0.0,
        -1.629206793918314e-05,
        -99.99999999999868,
        0.0,
        0.0,
        99.99999999999868,
        -1.629206793918314e-05,
        0.0,
        29.382749557495117,
        -1.552204196286766e-07,
        -497.2280578613281,
        1.0
      ],
      "name": "2.4"
    },
    {
      "mesh": 8,
      "name": "2.4_2.4_0"
    },
    {
      "children": [
        22
      ],
      "matrix": [
        100.0,
        0.0,
        0.0,
        0.0,
        0.0,
        -1.629206793918314e-05,
        -99.99999999999868,
        0.0,
        0.0,
        99.99999999999868,
        -1.629206793918314e-05,
        0.0,
        151.31805419921875,
        -4.47367440870039e-08,
        -494.45904541015625,
        1.0
      ],
      "name": "2.5"
    },
    {
      "mesh": 9,
      "name": "2.5_2.5_0"
    },
    {
      "children": [
        24
      ],
      "matrix": [
        100.0,
        0.0,
        0.0,
        0.0,
        -0.0,
        -1.629206793918314e-05,
        -99.99999999999868,
        0.0,
        0.0,
        99.99999999999868,
        -1.629206793918314e-05,
        0.0,
        -320.1270446777344,
        9.933235105563654e-07,
        -389.3837585449219,
        1.0
      ],
      "name": "3.1"
    },
    {
      "mesh": 10,
      "name": "3.1_3.1_0"
    },
    {
      "children": [
        26
      ],
      "matrix": [
        100.0,
        0.0,
        0.0,
        0.0,
        -0.0,
        -1.629206793918314e-05,
        -99.99999999999868,
        0.0,
        0.0,
        99.99999999999868,
        -1.629206793918314e-05,
        0.0,
        -203.579833984375,
        1.9549190710677067e-07,
        -384.22528076171875,
        1.0
      ],
      "name": "3.2"
    },
    {
      "mesh": 11,
      "name": "3.2_3.2_0"
    },
    {
      "children": [
        28
      ],
      "matrix": [
        100.0,
        0.0,
        0.0,
        0.0,
        -0.0,
        -1.629206793918314e-05,
        -99.99999999999868,
        0.0,
        0.0,
        99.99999999999868,
        -1.629206793918314e-05,
        0.0,
        -90.39781188964844,
        3.305282234578044e-07,
        -385.59674072265625,
        1.0
      ],
      "name": "3.3"
    },
    {
      "mesh": 12,
      "name": "3.3_3.3_0"
    },
    {
      "children": [
        30
      ],
      "matrix": [
        100.0,
        0.0,
        0.0,
        0.0,
        0.0,
        -1.629206793918314e-05,
        -99.99999999999868,
        0.0,
        0.0,
        99.99999999999868,
        -1.629206793918314e-05,
        0.0,
        32.26839828491211,
        -2.5762852828847826e-07,
        -381.0218200683594,
        1.0
      ],
      "name": "3.4"
    },
    {
      "mesh": 13,
      "name": "3.4_3.4_0"
    },
    {
      "children": [
        32
      ],
      "matrix": [
        100.0,
        0.0,
        0.0,
        0.0,
        0.0,
        -1.629206793918314e-05,
        -99.99999999999868,
        0.0,
        0.0,
        99.99999999999868,
        -1.629206793918314e-05,
        0.0,
        151.326171875,
        -2.1197290323016205e-07,
        -383.211669921875,
        1.0
      ],
      "name": "3.5"
    },
    {
      "mesh": 14,
      "name": "3.5_3.5_0"
    },
    {
      "children": [
        34
      ],
      "matrix": [
        100.0,
        0.0,
        0.0,
        0.0,
        -0.0,
        -1.629206793918314e-05,
        -99.99999999999868,
        0.0,
        0.0,
        206.94300842284883,
        -3.371529552764047e-05,
        0.0,
        -318.62188720703125,
        0.9440886974334717,
        -275.09771728515625,
        1.0
      ],
      "name": "4.1"
    },
    {
      "mesh": 15,
      "name": "4.1_4.1_0"
    },
    {
      "children": [
        36
      ],
      "matrix": [
        100.0,
        0.0,
        0.0,
        0.0,
        -0.0,
        -1.629206793918314e-05,
        -99.99999999999868,
        0.0,
        0.0,
        99.99999999999868,
        -1.629206793918314e-05,
        0.0,
        -205.34381103515625,
        1.932494342327118e-06,
        -273.1170349121094,
        1.0
      ],
      "name": "4.2"
    },
    {
      "mesh": 16,
      "name": "4.2_4.2_0"
    },
    {
      "children": [
        38
      ],
      "matrix": [
        100.0,
        0.0,
        0.0,
        0.0,
        -0.0,
        -1.629206793918314e-05,
        -99.99999999999868,
        0.0,
        0.0,
        99.99999999999868,
        -1.629206793918314e-05,
        0.0,
        -93.06226348876953,
        2.1089732626933255e-07,
        -271.09429931640625,
        1.0
      ],
      "name": "4.3"
    },
    {
      "mesh": 17,
      "name": "4.3_4.3_0"
    },
    {
      "children": [
        40
      ],
      "matrix": [
        100.0,
        0.0,
        0.0,
        0.0,
        0.0,
        -1.629206793918314e-05,
        -99.99999999999868,
        0.0,
        0.0,
        99.99999999999868,
        -1.629206793918314e-05,
        0.0,
        34.39261245727539,
        -4.132743924856186e-07,
        -269.0713806152344,
        1.0
      ],
      "name": "4.4"
    },
    {
      "mesh": 18,
      "name": "4.4_4.4_0"
    },
    {
      "children": [
        42
      ],
      "matrix": [
        100.0,
        0.0,
        0.0,
        0.0,
        0.0,
        -1.629206793918314e-05,
        -99.99999999999868,
        0.0,
        0.0,
        99.99999999999868,
        -1.629206793918314e-05,
        0.0,
        151.73219299316406,
        -7.196583595714401e-08,
        -271.0943298339844,
        1.0
      ],
      "name": "4.5"
    },
    {
      "mesh": 19,
      "name": "4.5_4.5_0"
    }
  ],
  "samplers": [
    {
      "magFilter": 9729,
      "minFilter": 9987,
      "wrapS": 10497,
      "wrapT": 10497
    }
  ],
  "scene": 0,
  "scenes": [
    {
      "name": "Sketchfab_Scene",
      "nodes": [
        0
      ]
    }
  ],
  "textures": [
    {
      "sampler": 0,
      "source": 0
    },
    {
      "sampler": 0,
      "source": 1
    },
    {
      "sampler": 0,
      "source": 2
    },
    {
      "sampler": 0,
      "source": 3
    },
    {
      "sampler": 0,
      "source": 4
    },
    {
      "sampler": 0,
      "source": 5
    },
    {
      "sampler": 0,
      "source": 6
    },
    {
      "sampler": 0,
      "source": 7
    },
    {
      "sampler": 0,
      "source": 8
    },
    {
      "sampler": 0,
      "source": 9
    },
    {
      "sampler": 0,
      "source": 10
    },
    {
      "sampler": 0,
      "source": 11
    },
    {
      "sampler": 0,
      "source": 12
    },
    {
      "sampler": 0,
      "source": 13
    },
    {
      "sampler": 0,
      "source": 14
    },
    {
      "sampler": 0,
      "source": 15
    },
    {
      "sampler": 0,
      "source": 16
    },
    {
      "sampler": 0,
      "source": 17
    },
    {
      "sampler": 0,
      "source": 18
    },
    {
      "sampler": 0,
      "source": 19
    },
    {
      "sampler": 0,
      "source": 20
    },
    {
      "sampler": 0,
      "source": 21
    },
    {
      "sampler": 0,
      "source": 22
    },
    {
      "sampler": 0,
      "source": 23
    },
    {
      "sampler": 0,
      "source": 24
    },
    {
      "sampler": 0,
      "source": 25
    },
    {
      "sampler": 0,
      "source": 26
    },
    {
      "sampler": 0,
      "source": 27
    },
    {
      "sampler": 0,
      "source": 28
    },
    {
      "sampler": 0,
      "source": 29
    },
    {
      "sampler": 0,
      "source": 30
    },
    {
      "sampler": 0,
      "source": 31
    },
    {
      "sampler": 0,
      "source": 32
    },
    {
      "sampler": 0,
      "source": 33
    },
    {
      "sampler": 0,
      "source": 34
    },
    {
      "sampler": 0,
      "source": 35
    },
    {
      "sampler": 0,
      "source": 36
    },
    {
      "sampler": 0,
      "source": 37
    },
    {
      "sampler": 0,
      "source": 38
    },
    {
      "sampler": 0,
      "source": 39
    },
    {
      "sampler": 0,
      "source": 40
    },
    {
      "sampler": 0,
      "source": 41
    },
    {
      "sampler": 0,
      "source": 42
    },
    {
      "sampler": 0,
      "source": 43
    },
    {
      "sampler": 0,
      "source": 44
    },
    {
      "sampler": 0,
      "source": 45
    },
    {
      "sampler": 0,
      "source": 46
    },
    {
      "sampler": 0,
      "source": 47
    },
    {
      "sampler": 0,
      "source": 48
    },
    {
      "sampler": 0,
      "source": 49
    },
    {
      "sampler": 0,
      "source": 50
    },
    {
      "sampler": 0,
      "source": 51
    },
    {
      "sampler": 0,
      "source": 52
    },
    {
      "sampler": 0,
      "source": 53
    },
    {
      "sampler": 0,
      "source": 54
    },
    {
      "sampler": 0,
      "source": 55
    },
    {
      "sampler": 0,
      "source": 56
    },
    {
      "sampler": 0,
      "source": 57
    },
    {
      "sampler": 0,
      "source": 58
    },
    {
      "sampler": 0,
      "source": 59
    }
  ]
}
